<?xml version="1.0" encoding="iso-8859-1"?>
<!-- Uploaded to: SVG Repo, www.svgrepo.com, Generator: SVG Repo Mixer Tools -->
<svg height="800px" width="800px" version="1.1" id="Layer_1" xmlns="http://www.w3.org/2000/svg" xmlns:xlink="http://www.w3.org/1999/xlink" 
	 viewBox="0 0 512.001 512.001" xml:space="preserve">
<g>
	<g>
		<path style="fill:#81C784;" d="M220.051,350.316c0-116.359-48.82-143.719-152.702-143.719
			C67.349,318.922,135.993,350.316,220.051,350.316"/>
		<path style="fill:#81C784;" d="M318.858,377.263c0-97.801,44.014-116.772,125.754-116.772
			C446.148,355.301,403.517,377.263,318.858,377.263"/>
		<path style="fill:#81C784;" d="M345.805,0c22.878,70.593-33.603,111.409-77.474,116.772C235.689,68.285,258.226,11.929,345.805,0"
			/>
		<path style="fill:#81C784;" d="M229.033,197.614c-75.228,0-89.825-35.93-89.825-98.807
			C212.137,97.621,229.033,132.491,229.033,197.614"/>
		<path style="fill:#81C784;" d="M300.893,233.544c81.902,0,116.772-9.324,116.772-116.772
			C335.763,116.772,300.893,126.096,300.893,233.544"/>
	</g>
	<path style="fill:#4CAF50;" d="M380.989,319.785c-1.985-4.554-7.285-6.638-11.821-4.653
		c-27.675,12.045-44.598,35.292-57.488,56.652c-12.09,12.917-25.295,27.693-37.735,45.586V296.422
		c0-12.189,13.483-35.014,33.549-56.787c1.015-1.105,2.425-2.677,4.177-4.626c9.854-11.021,30.361-33.927,48.658-48.29
		c3.907-3.063,4.581-8.713,1.527-12.611c-3.072-3.907-8.713-4.581-12.611-1.527c-19.546,15.342-40.762,39.047-50.966,50.445
		l-3.988,4.428c-4.114,4.464-12.477,13.977-20.345,25.402V152.775c0.243-32.463,5.857-52.341,21.423-75.974
		c2.731-4.141,1.59-9.71-2.551-12.441c-4.15-2.74-9.719-1.59-12.45,2.56c-17.498,26.561-24.109,49.79-24.387,85.711
		c0,0.018,0.009,0.027,0.009,0.036c0,0.009-0.009,0.027-0.009,0.036v63.236c-9.054-12.917-18.513-22.582-20.345-24.414l-35.93-38.93
		c-3.359-3.638-9.036-3.871-12.692-0.503c-3.647,3.359-3.871,9.045-0.512,12.692l36.181,39.181
		c9.261,9.261,33.298,37.475,33.298,56.527v114.113c-8.147-10.213-15.854-17.498-22.16-23.408c-2.569-2.407-4.833-4.545-6.782-6.593
		c-24.432-38.014-49.008-62.356-75.102-74.312c-4.5-2.057-9.845-0.099-11.911,4.419c-2.066,4.509-0.09,9.845,4.428,11.911
		c23.067,10.572,45.316,32.993,68.024,68.536c0.234,0.35,0.53,0.629,0.799,0.943c0.09,0.117,0.117,0.252,0.225,0.359
		c2.255,2.416,4.976,4.967,8.03,7.842c9.414,8.821,22.178,20.884,34.448,42.361v96.355c0,4.958,4.024,8.982,8.982,8.982
		s8.982-4.024,8.982-8.982v-51.541c15.558-28.663,34.681-50.167,51.469-68.069c0.099-0.108,0.126-0.243,0.216-0.359
		c0.323-0.368,0.665-0.728,0.925-1.159c11.498-19.16,26.39-40.107,49.781-50.284C380.881,329.621,382.965,324.33,380.989,319.785"/>
	<path style="fill:#9E5A23;" d="M417.665,512H112.261c-4.958,0-8.982-4.024-8.982-8.982s4.024-8.982,8.982-8.982h305.404
		c4.958,0,8.982,4.024,8.982,8.982S422.623,512,417.665,512"/>
</g>
</svg>